<svg xmlns="http://www.w3.org/2000/svg" id="Logo_CDM" data-name="Logo CDM" width="142.197" height="118.563" viewBox="0 0 142.197 118.563"><g id="Grupo_2" data-name="Grupo 2"><path id="Caminho_1" data-name="Caminho 1" d="M208.019,52.691a14.1,14.1,0,0,0-9.173-4.617c-.441-.042-.864-.063-1.293-.063-5.552,0-9.258,1.829-13.547,3.947a77.593,77.593,0,0,1-13.5,5.44l-1.956.457c-8.133,1.91-14.605,3.1-21.71,3.1-7.137,0-14.828-1.232-24.188-3.871a45.982,45.982,0,0,0-16.134-3.136c-10.956,0-20.333,2.729-27.115,7.889-6.246,4.755-9.827,11.325-9.827,18.022v45.968c0,5.987,5.221,16.357,16.689,24.97,9.582,7.2,27,15.779,55.6,15.779,28.574,0,45.4-8.6,54.488-15.816,10.653-8.461,15.425-18.621,15.425-24.933V62.474A14.55,14.55,0,0,0,208.019,52.691Z" transform="translate(-69.572 -48.011)" fill="#fff"></path><path id="Caminho_2" data-name="Caminho 2" d="M363.031,77.192c0-.731.82-.815,1.29-.817a100.722,100.722,0,0,0,22.031-2.508c19.239-4.43,22-10.682,31.562-10.682a9.258,9.258,0,0,1,.949.049,10.61,10.61,0,0,1,9.548,10.634c0,5.088-4.094,9.217-8.176,10.414-3.889,1.14-29.672,8-56.024-5.763C363.78,78.3,363.031,77.849,363.031,77.192Z" transform="translate(-289.932 -59.406)" fill="#ffa600"></path><path id="Caminho_3" data-name="Caminho 3" d="M213.712,104.811a107.752,107.752,0,0,1-27.875,3.378c-29.072,0-45.9-21.176-68.127-21.176-22.06,0-33.228,11.655-33.228,22.131v45.968c0,9.186,17.63,36.968,68.571,36.968s66.195-27.718,66.195-36.968V109.836C219.246,105.5,217.446,103.762,213.712,104.811Z" transform="translate(-80.767 -77.298)" fill="#00852a"></path><g id="Grupo_1" data-name="Grupo 1" transform="translate(12.571 36.026)"><path id="Caminho_4" data-name="Caminho 4" d="M139.288,193.963l.013,4.692h-.585a14.176,14.176,0,0,0-6.163-1.5,6.72,6.72,0,0,0-5.529,2.384,10.426,10.426,0,0,0-1.886,6.343,10.307,10.307,0,0,0,2,6.414,7.13,7.13,0,0,0,5.548,2.311,14.076,14.076,0,0,0,6.115-1.5h.661l.016,4.654a19.428,19.428,0,0,1-6.74,1.358,12.047,12.047,0,0,1-8.665-3.155,13.7,13.7,0,0,1-4.031-10.229,14.059,14.059,0,0,1,3.268-9.24,11.835,11.835,0,0,1,9.226-3.851A19.914,19.914,0,0,1,139.288,193.963Z" transform="translate(-120.041 -192.641)" fill="#fff"></path><path id="Caminho_5" data-name="Caminho 5" d="M217.013,236.408a7.2,7.2,0,0,1-5.162,2.2,6.417,6.417,0,0,1-6.768-6.308,6.117,6.117,0,0,1,5.515-6.232l6.3-.919c-.154-1.867-3.088-2.529-4.371-2.529a12.589,12.589,0,0,0-5.091,1.137h-.514l-.013-4.251a20.7,20.7,0,0,1,5.678-.954c4.4,0,8.694,1.65,8.858,6.491l.045,13.127h-4.471Zm-4.332-1.906a8.209,8.209,0,0,0,4.136-1.322l-.013-4.326c-1.576.293-3.187.441-4.8.771a2.368,2.368,0,0,0-2.227,2.418C209.78,233.841,211.139,234.5,212.681,234.5Z" transform="translate(-183.898 -212.097)" fill="#fff"></path><path id="Caminho_6" data-name="Caminho 6" d="M297.2,225.7l.041,12.467h-4.656l-.042-11.992c.033-1.831-.852-3.335-2.907-3.335a9.311,9.311,0,0,0-4.76,1.577l.045,13.751h-4.653l-.068-19.214h4.511l0,1.247a13,13,0,0,1,5.6-1.65C294.349,218.551,297.183,221.411,297.2,225.7Z" transform="translate(-240.304 -212.097)" fill="#fff"></path><path id="Caminho_7" data-name="Caminho 7" d="M360.171,219.664a2.28,2.28,0,0,0,2.537,2.386,6.765,6.765,0,0,0,2.783-.771h.732l.016,4.069a11.794,11.794,0,0,1-4.066.845c-4.544,0-6.646-2.569-6.662-7.115l-.029-8.469h-2.09l-.012-4.033h2.087l-.015-4.51h4.659l.015,4.51h4.909l.018,4.033h-4.914Z" transform="translate(-295.257 -199.718)" fill="#fff"></path><path id="Caminho_8" data-name="Caminho 8" d="M417.657,218.551c5.425,0,9.142,3.922,9.162,10.01s-3.628,10.011-9.093,10.011-9.219-3.924-9.238-10.011S412.193,218.551,417.657,218.551Zm.017,15.877c2.642,0,4.356-2.276,4.342-5.867s-1.776-5.867-4.383-5.867-4.353,2.274-4.341,5.867S415.071,234.428,417.674,234.428Z" transform="translate(-336.637 -212.097)" fill="#fff"></path><path id="Caminho_9" data-name="Caminho 9" d="M501.459,278.7a5.738,5.738,0,0,1-5.146-2.666,8.16,8.16,0,0,1-.966-4.018,7.163,7.163,0,0,1,1.315-4.377,5.646,5.646,0,0,1,4.35-1.927,4.228,4.228,0,0,1,2.4.62L503.393,261h3.023l.046,14.675a2.985,2.985,0,0,1-2.984,3.021Zm1.961-9.989a9.03,9.03,0,0,0-2.119-.31,2.608,2.608,0,0,0-2.274,1.141,4.648,4.648,0,0,0-.541,2.474,4.832,4.832,0,0,0,.869,3.235,3.344,3.344,0,0,0,2.38.762h1a.711.711,0,0,0,.713-.691Z" transform="translate(-401.86 -243.972)" fill="#fff"></path><path id="Caminho_10" data-name="Caminho 10" d="M553.24,290.32a6.75,6.75,0,0,0,3.283-.785h.378l.009,2.83a12.667,12.667,0,0,1-3.9.524,7.319,7.319,0,0,1-4.955-1.666,6.212,6.212,0,0,1-1.92-4.758,7.962,7.962,0,0,1,1.367-4.423,5.432,5.432,0,0,1,4.44-2.141,5.052,5.052,0,0,1,4.954,3.141,10.64,10.64,0,0,1,.633,4.54h-8.155C549.693,289.558,551.508,290.368,553.24,290.32Zm-3.846-5.232h5.066c-.148-1.57-.935-2.547-2.46-2.569A2.586,2.586,0,0,0,549.394,285.088Z" transform="translate(-440.001 -258.165)" fill="#fff"></path><path id="Caminho_11" data-name="Caminho 11" d="M208.965,349.248l-5.6-16.941-.859,16.941h-4.438l1.1-22.661a3.331,3.331,0,0,1,3.212-3.3,3.818,3.818,0,0,1,3.64,2.641l5.484,16.428,5.187-16.428a3.531,3.531,0,0,1,6.931.7l1.253,22.623h-4.839l-.793-17.269L213.8,349.248Z" transform="translate(-178.635 -290.742)" fill="#fff"></path><path id="Caminho_12" data-name="Caminho 12" d="M318.4,350.142h-4.653l-.068-19.213h4.654Zm-.032-21.084h-4.7l-.015-4.583h4.695Z" transform="translate(-265.431 -291.637)" fill="#fff"></path><path id="Caminho_13" data-name="Caminho 13" d="M359.554,355.915l.042,12.467h-4.654l-.042-11.989c.032-1.833-.854-3.337-2.905-3.337a9.332,9.332,0,0,0-4.763,1.574l.05,13.752h-4.66l-.063-19.213h4.508l.006,1.246a12.986,12.986,0,0,1,5.6-1.649C356.706,348.765,359.541,351.622,359.554,355.915Z" transform="translate(-287.13 -309.875)" fill="#fff"></path><path id="Caminho_14" data-name="Caminho 14" d="M431.674,366.621a7.194,7.194,0,0,1-5.162,2.2,6.417,6.417,0,0,1-6.769-6.306,6.124,6.124,0,0,1,5.518-6.232l6.3-.915c-.15-1.87-3.088-2.53-4.374-2.53a12.579,12.579,0,0,0-5.087,1.135h-.515l-.016-4.25a20.6,20.6,0,0,1,5.678-.955c4.4,0,8.7,1.649,8.86,6.489l.047,13.127h-4.472Zm-4.334-1.908a8.265,8.265,0,0,0,4.14-1.318l-.013-4.328c-1.579.293-3.191.44-4.8.769a2.377,2.377,0,0,0-2.227,2.423C424.443,364.055,425.8,364.713,427.34,364.713Z" transform="translate(-345.087 -309.875)" fill="#fff"></path><path id="Caminho_15" data-name="Caminho 15" d="M495.23,367.827l-.008-4.105h.585a16.16,16.16,0,0,0,5.394,1.028c1.318-.038,3.518-.257,3.511-2.051,0-.991-1.435-1.469-2.316-1.8a45.661,45.661,0,0,1-4.666-1.833,5.351,5.351,0,0,1-2.727-4.8c-.01-3.669,3.393-5.537,6.579-5.5a19.949,19.949,0,0,1,5.908,1.024l.013,3.926h-.624a14.384,14.384,0,0,0-4.7-.881c-.733,0-2.785.147-2.78,1.246,0,.587,1.066,1.173,1.871,1.429a44.587,44.587,0,0,1,4.924,1.871,5.4,5.4,0,0,1,2.911,5.1c.013,4.4-4.049,6.3-8.081,6.3A19.223,19.223,0,0,1,495.23,367.827Z" transform="translate(-401.603 -309.874)" fill="#fff"></path></g></g></svg>